<svg xmlns="http://www.w3.org/2000/svg" width="60" height="60" viewBox="0 0 60 60"><g transform="translate(-1180 -699)"><g transform="translate(1180 699)" fill="#fff" stroke="#000" stroke-width="1"><rect width="60" height="60" stroke="none"/><rect x="0.5" y="0.5" width="59" height="59" fill="none"/></g><path d="M16.36-11.56a.232.232,0,0,1,.04.16.2.2,0,0,1-.1.18.194.194,0,0,1-.22-.02L9.6-16.32V2.16q0,.08-.32.14a3.687,3.687,0,0,1-.68.06,3.834,3.834,0,0,1-.58-.04q-.26-.04-.26-.12V-16.24l-6.48,5-.08.04q-.08,0-.18-.14T1-11.56l7.44-9.6a.384.384,0,0,1,.28-.12,1.266,1.266,0,0,1,.28.12Z" transform="translate(1202 738)"/></g></svg>