<svg xmlns="http://www.w3.org/2000/svg" width="166" height="166" viewBox="0 0 166 166"><g transform="translate(-724 -339)"><g transform="translate(-7 36)"><g transform="translate(745.5 318)" fill="rgba(255,255,255,0.8)" stroke="#fff" stroke-width="18"><rect width="136" height="136" stroke="none"/><rect x="9" y="9" width="118" height="118" fill="none"/></g><path d="M11.712.384a10.092,10.092,0,0,1-5.3-1.392A9.535,9.535,0,0,1,2.832-4.784a10.929,10.929,0,0,1-1.264-5.2,9.526,9.526,0,0,1,1.664-5.648A10.427,10.427,0,0,1,7.5-19.168a12.767,12.767,0,0,1,5.328-1.184,9.955,9.955,0,0,1,5.344,1.424,9.651,9.651,0,0,1,3.536,3.76,10.481,10.481,0,0,1,1.232,4.96,9.81,9.81,0,0,1-1.536,5.344A11.036,11.036,0,0,1,17.3-1.024,11.457,11.457,0,0,1,11.712.384Zm1.056-.8a5.318,5.318,0,0,0,3.216-1.04A6.742,6.742,0,0,0,18.208-4.5a12.869,12.869,0,0,0,.8-4.784,14.526,14.526,0,0,0-.9-5.264,8.192,8.192,0,0,0-2.592-3.632,6.3,6.3,0,0,0-3.968-1.312A5.177,5.177,0,0,0,7.072-17.3,10.393,10.393,0,0,0,5.5-11.168a15.341,15.341,0,0,0,.944,5.552A9.134,9.134,0,0,0,9.04-1.792,5.661,5.661,0,0,0,12.768-.416Zm17.92-18.848q-3.808,0-5.472,4.96-.032.1-.192.08t-.16-.112q.128-1.28.288-3.312t.16-3.056q0-.16.176-.16t.176.16q0,.7,1.824.7,2.752.1,6.432.1,1.888,0,4-.064L40.1-20a7.081,7.081,0,0,0,1.776-.16.98.98,0,0,0,.72-.64q.032-.128.208-.128t.176.128q-.1.96-.208,3.072t-.112,3.392q0,.1-.16.1t-.192-.1a6.668,6.668,0,0,0-1.792-3.7,4.543,4.543,0,0,0-3.232-1.232,1.492,1.492,0,0,0-1.232.4,2.676,2.676,0,0,0-.3,1.52V-2.592a3.933,3.933,0,0,0,.192,1.44,1.075,1.075,0,0,0,.736.608,6.7,6.7,0,0,0,1.728.16q.1,0,.1.192T38.4,0q-1.152,0-1.824-.032L33.92-.064l-2.592.032Q30.656,0,29.472,0q-.1,0-.1-.192t.1-.192a6.731,6.731,0,0,0,1.712-.16,1.125,1.125,0,0,0,.768-.624,3.672,3.672,0,0,0,.208-1.424V-17.408a2.628,2.628,0,0,0-.288-1.472A1.427,1.427,0,0,0,30.688-19.264Zm36.9,18.88q.1,0,.1.192t-.1.192q-1.12,0-1.792-.032L63.328-.064l-2.88.032Q59.872,0,58.88,0q-.1,0-.1-.192t.1-.192a6.7,6.7,0,0,0,1.728-.16,1.075,1.075,0,0,0,.736-.608,3.933,3.933,0,0,0,.192-1.44v-7.36H51.2v7.36a3.952,3.952,0,0,0,.192,1.424,1.069,1.069,0,0,0,.736.624,6.7,6.7,0,0,0,1.728.16q.064,0,.064.192T53.856,0q-1.12,0-1.792-.032L49.28-.064l-2.4.032Q46.24,0,45.12,0q-.064,0-.064-.192t.064-.192a5.982,5.982,0,0,0,1.632-.16,1.061,1.061,0,0,0,.7-.624,3.952,3.952,0,0,0,.192-1.424V-17.408a3.815,3.815,0,0,0-.192-1.408,1.113,1.113,0,0,0-.688-.624,5.149,5.149,0,0,0-1.584-.176q-.1,0-.1-.192t.1-.192l1.728.032q1.472.064,2.368.064,1.216,0,2.816-.064L53.856-20q.064,0,.064.192t-.064.192a5.491,5.491,0,0,0-1.7.192,1.221,1.221,0,0,0-.752.656,3.672,3.672,0,0,0-.208,1.424v6.5H61.536v-6.5a3.952,3.952,0,0,0-.192-1.424,1.164,1.164,0,0,0-.736-.656,5.634,5.634,0,0,0-1.728-.192q-.1,0-.1-.192t.1-.192l1.568.032q1.6.064,2.88.064.864,0,2.464-.064L67.584-20q.1,0,.1.192t-.1.192a5.486,5.486,0,0,0-1.616.176,1.065,1.065,0,0,0-.7.624,4.135,4.135,0,0,0-.176,1.408V-2.592a4.284,4.284,0,0,0,.176,1.424,1.013,1.013,0,0,0,.688.624A5.982,5.982,0,0,0,67.584-.384Zm16.9-4.7q0-.064.128-.064a.336.336,0,0,1,.176.048q.08.048.08.08a36,36,0,0,0-.32,4.544.564.564,0,0,1-.1.368A.5.5,0,0,1,84.064,0H69.92q-.1,0-.1-.192t.1-.192a4.978,4.978,0,0,0,1.488-.16.959.959,0,0,0,.624-.624,4.686,4.686,0,0,0,.16-1.424V-17.408a4.521,4.521,0,0,0-.16-1.408,1.007,1.007,0,0,0-.64-.624,4.57,4.57,0,0,0-1.472-.176q-.1,0-.1-.192t.1-.192H83.488q.32,0,.32.288l.064,4.256q0,.064-.176.1t-.208-.064a4.889,4.889,0,0,0-1.728-2.752,5.267,5.267,0,0,0-3.2-.9H77.6a2.019,2.019,0,0,0-1.408.416,1.667,1.667,0,0,0-.448,1.28v6.528H78.4a5.264,5.264,0,0,0,2.848-.64,2.019,2.019,0,0,0,.992-1.792q0-.1.176-.1t.176.1L82.56-10.4l.032,1.536q.064,1.088.064,1.728,0,.064-.192.064t-.192-.064A2.435,2.435,0,0,0,81.264-9.2a4.78,4.78,0,0,0-2.9-.752H75.744V-2.72A2.214,2.214,0,0,0,76.1-1.344a1.337,1.337,0,0,0,1.12.448h1.056a6.992,6.992,0,0,0,4-1.024A5.892,5.892,0,0,0,84.48-5.088Zm24.448,4.7q.064,0,.064.192T108.928,0h-5.7q-.7,0-2.624-2.64a85.183,85.183,0,0,1-4.64-7.376,6.365,6.365,0,0,1-.736.032q-1.248,0-1.76-.032v7.424a4.664,4.664,0,0,0,.16,1.44.959.959,0,0,0,.624.608,4.978,4.978,0,0,0,1.488.16q.064,0,.064.192T95.744,0Q94.688,0,94.08-.032L91.648-.064l-2.336.032Q88.672,0,87.584,0q-.1,0-.1-.192t.1-.192a4.978,4.978,0,0,0,1.488-.16,1.006,1.006,0,0,0,.64-.624,4.284,4.284,0,0,0,.176-1.424V-17.408a4.521,4.521,0,0,0-.16-1.408,1.007,1.007,0,0,0-.64-.624,4.57,4.57,0,0,0-1.472-.176q-.064,0-.064-.192T87.616-20l1.7.032q1.472.064,2.336.064.928,0,2.048-.1.352-.032.912-.064t1.328-.032a8.213,8.213,0,0,1,4.56,1.072,3.4,3.4,0,0,1,1.616,2.992,5,5,0,0,1-.9,2.816A6.929,6.929,0,0,1,98.88-11.04q2.56,4.032,4.3,6.3a18.094,18.094,0,0,0,3.1,3.312A4.381,4.381,0,0,0,108.928-.384ZM93.472-10.944a11.5,11.5,0,0,0,1.856.128,3.961,3.961,0,0,0,1.824-.352,2.072,2.072,0,0,0,.976-1.216,7.632,7.632,0,0,0,.3-2.432,6.177,6.177,0,0,0-.768-3.616,2.626,2.626,0,0,0-2.208-.992,2.037,2.037,0,0,0-1.536.48,2.313,2.313,0,0,0-.448,1.6Z" transform="translate(759.5 396.5)"/></g><rect width="166" height="166" transform="translate(724 339)" fill="none"/></g></svg>