<svg xmlns="http://www.w3.org/2000/svg" width="166" height="166" viewBox="0 0 166 166"><g transform="translate(-390 -339)"><g transform="translate(20 36)"><g transform="translate(380 313)" fill="rgba(255,255,255,0.8)"><path d="M 73 137 C 37.71027755737305 137 9 108.2897186279297 9 73 C 9 37.71027755737305 37.71027755737305 9 73 9 C 108.2897186279297 9 137 37.71027755737305 137 73 C 137 108.2897186279297 108.2897186279297 137 73 137 Z" stroke="none"/><path d="M 73 18 C 42.67288970947266 18 18 42.67288970947266 18 73 C 18 103.3271026611328 42.67288970947266 128 73 128 C 103.3271026611328 128 128 103.3271026611328 128 73 C 128 42.67288970947266 103.3271026611328 18 73 18 M 73 0 C 113.3167877197266 0 146 32.68321228027344 146 73 C 146 113.3167877197266 113.3167877197266 146 73 146 C 32.68321228027344 146 0 113.3167877197266 0 73 C 0 32.68321228027344 32.68321228027344 0 73 0 Z" stroke="none" fill="#fff"/></g><path d="M13.088.384A13.306,13.306,0,0,1,6.944-.96a9.605,9.605,0,0,1-4-3.664A9.939,9.939,0,0,1,1.568-9.792,9.785,9.785,0,0,1,3.152-15.28,10.516,10.516,0,0,1,7.5-19.024,14.132,14.132,0,0,1,13.7-20.352a19.669,19.669,0,0,1,3.04.24,11.087,11.087,0,0,1,2.464.624.63.63,0,0,1,.368.24,1.358,1.358,0,0,1,.112.5L20.1-14.3q0,.1-.16.128a.183.183,0,0,1-.224-.1,9.2,9.2,0,0,0-3.088-3.84,7.654,7.654,0,0,0-4.5-1.376,5.848,5.848,0,0,0-4.976,2.272A10.1,10.1,0,0,0,5.44-11.008,13.929,13.929,0,0,0,6.528-5.36,8.947,8.947,0,0,0,9.552-1.52,7.367,7.367,0,0,0,13.888-.16,5.53,5.53,0,0,0,15.9-.448a1.848,1.848,0,0,0,1.024-1.12,7.23,7.23,0,0,0,.32-2.464,9.464,9.464,0,0,0-.192-2.32,1.256,1.256,0,0,0-.816-.88,7.176,7.176,0,0,0-2.16-.224q-.192,0-.192-.256a.336.336,0,0,1,.048-.176.135.135,0,0,1,.112-.08q2.72.16,4.384.16,1.632,0,3.392-.1a.135.135,0,0,1,.112.08.287.287,0,0,1,.048.144q0,.224-.16.224a.991.991,0,0,0-.8.208,1.691,1.691,0,0,0-.288.96q-.064.72-.064,2.576a12.856,12.856,0,0,0,.112,2.048A5.958,5.958,0,0,1,20.9-.9a.319.319,0,0,1-.08.256.942.942,0,0,1-.3.128A35.36,35.36,0,0,1,13.088.384ZM45.952-.384q.16,0,.16.192T45.952,0q-.64,0-1.984-.064Q42.56-.128,41.952-.128q-.8,0-1.952.064Q38.912,0,38.272,0q-.128,0-.128-.192t.128-.192a2.981,2.981,0,0,0,1.2-.176.633.633,0,0,0,.368-.624,4.952,4.952,0,0,0-.64-1.824l-3.328-6.56h-5.7L27.9-4.544a4.249,4.249,0,0,0-.416,1.728A2.148,2.148,0,0,0,28.3-1.024a3.457,3.457,0,0,0,2.192.64q.16,0,.16.192T30.5,0q-.576,0-1.664-.064Q27.616-.128,26.72-.128q-.864,0-2.08.064Q23.552,0,22.88,0q-.128,0-.128-.192t.128-.192a2.857,2.857,0,0,0,1.5-.368A4.08,4.08,0,0,0,25.6-2.064a22.3,22.3,0,0,0,1.44-2.8l6.944-15.264q.064-.1.288-.1.256,0,.288.1l8,15.744a16.584,16.584,0,0,0,1.856,3.136A2.058,2.058,0,0,0,45.952-.384ZM35.424-10.464l-2.56-5.056-2.272,5.056ZM52.736-2.72a4.008,4.008,0,0,0,.128,1.2.767.767,0,0,0,.5.5,4.008,4.008,0,0,0,1.2.128h1.088a7.141,7.141,0,0,0,4.32-1.328,6.335,6.335,0,0,0,2.432-3.6q0-.064.128-.064a.287.287,0,0,1,.144.048q.08.048.08.08-.288,3.168-.288,5.28a.506.506,0,0,1-.112.368A.506.506,0,0,1,61.984,0H46.88q-.064,0-.064-.192t.064-.192a4.978,4.978,0,0,0,1.488-.16,1.006,1.006,0,0,0,.64-.624,4.284,4.284,0,0,0,.176-1.424V-17.408a4.135,4.135,0,0,0-.176-1.408,1.059,1.059,0,0,0-.656-.624,4.57,4.57,0,0,0-1.472-.176q-.064,0-.064-.192T46.88-20l1.632.032q1.472.064,2.432.064t2.432-.064L55.008-20q.1,0,.1.192t-.1.192a4.57,4.57,0,0,0-1.472.176,1.006,1.006,0,0,0-.64.64,4.686,4.686,0,0,0-.16,1.424Zm17.44,0a4.007,4.007,0,0,0,.128,1.2.767.767,0,0,0,.5.5A4.007,4.007,0,0,0,72-.9h1.088a7.141,7.141,0,0,0,4.32-1.328,6.335,6.335,0,0,0,2.432-3.6q0-.064.128-.064a.287.287,0,0,1,.144.048q.08.048.08.08Q79.9-2.592,79.9-.48a.506.506,0,0,1-.112.368A.506.506,0,0,1,79.424,0H64.32q-.064,0-.064-.192t.064-.192a4.978,4.978,0,0,0,1.488-.16,1.006,1.006,0,0,0,.64-.624,4.284,4.284,0,0,0,.176-1.424V-17.408a4.135,4.135,0,0,0-.176-1.408,1.059,1.059,0,0,0-.656-.624,4.57,4.57,0,0,0-1.472-.176q-.064,0-.064-.192T64.32-20l1.632.032q1.472.064,2.432.064t2.432-.064L72.448-20q.1,0,.1.192t-.1.192a4.57,4.57,0,0,0-1.472.176,1.006,1.006,0,0,0-.64.64,4.686,4.686,0,0,0-.16,1.424Zm26.5-2.368q0-.064.128-.064a.336.336,0,0,1,.176.048q.08.048.08.08a36,36,0,0,0-.32,4.544.564.564,0,0,1-.1.368A.5.5,0,0,1,96.256,0H82.112q-.1,0-.1-.192t.1-.192A4.978,4.978,0,0,0,83.6-.544a.959.959,0,0,0,.624-.624,4.686,4.686,0,0,0,.16-1.424V-17.408a4.521,4.521,0,0,0-.16-1.408,1.007,1.007,0,0,0-.64-.624,4.57,4.57,0,0,0-1.472-.176q-.1,0-.1-.192t.1-.192H95.68q.32,0,.32.288l.064,4.256q0,.064-.176.1t-.208-.064a4.889,4.889,0,0,0-1.728-2.752,5.267,5.267,0,0,0-3.2-.9h-.96a2.019,2.019,0,0,0-1.408.416,1.667,1.667,0,0,0-.448,1.28v6.528h2.656a5.264,5.264,0,0,0,2.848-.64,2.019,2.019,0,0,0,.992-1.792q0-.1.176-.1t.176.1l-.032,2.88.032,1.536q.064,1.088.064,1.728,0,.064-.192.064t-.192-.064A2.435,2.435,0,0,0,93.456-9.2a4.78,4.78,0,0,0-2.9-.752H87.936V-2.72a2.214,2.214,0,0,0,.352,1.376,1.337,1.337,0,0,0,1.12.448h1.056a6.992,6.992,0,0,0,4-1.024A5.892,5.892,0,0,0,96.672-5.088Zm24.448,4.7q.064,0,.064.192T121.12,0h-5.7q-.7,0-2.624-2.64a85.183,85.183,0,0,1-4.64-7.376,6.365,6.365,0,0,1-.736.032q-1.248,0-1.76-.032v7.424a4.664,4.664,0,0,0,.16,1.44.959.959,0,0,0,.624.608,4.978,4.978,0,0,0,1.488.16q.064,0,.064.192T107.936,0q-1.056,0-1.664-.032L103.84-.064,101.5-.032Q100.864,0,99.776,0q-.1,0-.1-.192t.1-.192a4.978,4.978,0,0,0,1.488-.16,1.006,1.006,0,0,0,.64-.624,4.284,4.284,0,0,0,.176-1.424V-17.408a4.521,4.521,0,0,0-.16-1.408,1.007,1.007,0,0,0-.64-.624,4.57,4.57,0,0,0-1.472-.176q-.064,0-.064-.192T99.808-20l1.7.032q1.472.064,2.336.064.928,0,2.048-.1.352-.032.912-.064t1.328-.032a8.213,8.213,0,0,1,4.56,1.072,3.4,3.4,0,0,1,1.616,2.992,5,5,0,0,1-.9,2.816,6.929,6.929,0,0,1-2.336,2.176q2.56,4.032,4.3,6.3a18.094,18.094,0,0,0,3.1,3.312A4.381,4.381,0,0,0,121.12-.384Zm-15.456-10.56a11.5,11.5,0,0,0,1.856.128,3.961,3.961,0,0,0,1.824-.352,2.072,2.072,0,0,0,.976-1.216,7.632,7.632,0,0,0,.3-2.432,6.177,6.177,0,0,0-.768-3.616,2.626,2.626,0,0,0-2.208-.992,2.037,2.037,0,0,0-1.536.48,2.313,2.313,0,0,0-.448,1.6ZM138.944-20q.064,0,.064.192t-.064.192a4.136,4.136,0,0,0-2.432,1.232,12.546,12.546,0,0,0-2.56,3.088l-3.328,5.568v7.136a4.663,4.663,0,0,0,.16,1.44.959.959,0,0,0,.624.608,4.978,4.978,0,0,0,1.488.16q.1,0,.1.192T132.9,0q-1.056,0-1.664-.032l-2.4-.032-2.368.032q-.64.032-1.728.032-.064,0-.064-.192t.064-.192a5.15,5.15,0,0,0,1.5-.16,1.007,1.007,0,0,0,.656-.624,4.284,4.284,0,0,0,.176-1.424V-9.056L122.4-16.32a13.741,13.741,0,0,0-1.968-2.576,2.2,2.2,0,0,0-1.328-.72q-.1,0-.1-.192t.1-.192l.992.032q.7.064.992.064,1.12,0,3.232-.064L126.432-20q.064,0,.064.192t-.064.192a1.278,1.278,0,0,0-.848.256.836.836,0,0,0-.3.672,2.378,2.378,0,0,0,.448,1.216l4.384,6.912,2.944-5.024a5.033,5.033,0,0,0,.864-2.464,1.458,1.458,0,0,0-.464-1.168,1.975,1.975,0,0,0-1.328-.4q-.1,0-.1-.192t.1-.192l1.7.032q1.472.064,2.624.064.544,0,1.312-.064Z" transform="translate(383.5 396.5)"/></g><rect width="166" height="166" transform="translate(390 339)" fill="none"/></g></svg>