<svg xmlns="http://www.w3.org/2000/svg" width="166" height="166" viewBox="0 0 166 166"><g transform="translate(-390 -339)"><g transform="translate(20 36)"><g transform="translate(380 313)" fill="rgba(255,255,255,0.8)"><path d="M 73 137 C 37.71027755737305 137 9 108.2897186279297 9 73 C 9 37.71027755737305 37.71027755737305 9 73 9 C 108.2897186279297 9 137 37.71027755737305 137 73 C 137 108.2897186279297 108.2897186279297 137 73 137 Z" stroke="none"/><path d="M 73 18 C 42.67288970947266 18 18 42.67288970947266 18 73 C 18 103.3271026611328 42.67288970947266 128 73 128 C 103.3271026611328 128 128 103.3271026611328 128 73 C 128 42.67288970947266 103.3271026611328 18 73 18 M 73 0 C 113.3167877197266 0 146 32.68321228027344 146 73 C 146 113.3167877197266 113.3167877197266 146 73 146 C 32.68321228027344 146 0 113.3167877197266 0 73 C 0 32.68321228027344 32.68321228027344 0 73 0 Z" stroke="none" fill="#fff"/></g><text transform="translate(383.5 396.5)" font-size="32" font-family="Cormorant-Bold, Cormorant" font-weight="700"><tspan x="0" y="0">GALLERY</tspan></text></g><path d="M0,0H166V166H0Z" transform="translate(390 339)" fill="none"/></g></svg>