<svg xmlns="http://www.w3.org/2000/svg" width="36.522" height="44.224" viewBox="0 0 36.522 44.224"><g transform="translate(-265.384 -503)"><g transform="translate(54 20)"><path d="M0,0H12V12H0Z" transform="translate(215 500)" fill="#fff"/><path d="M6,0l6,12H0Z" transform="translate(215 483)" fill="#fff"/><circle cx="6" cy="6" r="6" transform="translate(233 484)" fill="#fff"/><g transform="translate(234.329 502.203)"><line x2="11" y2="11" transform="translate(-1 -1)" fill="none" stroke="#fff" stroke-width="1"/><line x1="11" y2="11" transform="translate(-1 -1)" fill="none" stroke="#fff" stroke-width="2"/></g></g><path d="M13.328-.192q.032,0,.032.1t-.032.1q-.544,0-.864-.016L11.28-.032l-1.2.016Q9.776,0,9.248,0,9.2,0,9.2-.1t.048-.1a1.792,1.792,0,0,0,.912-.16.762.762,0,0,0,.24-.672L10.384-1.3,10.048-7.84,6.752-.112a.129.129,0,0,1-.128.064A.129.129,0,0,1,6.5-.112l-4.048-7.7L2.32-2.032A2.167,2.167,0,0,0,2.664-.68,1.189,1.189,0,0,0,3.68-.192q.048,0,.048.1T3.68,0q-.432,0-.672-.016l-.88-.016L1.12-.016Q.864,0,.432,0,.384,0,.384-.1t.048-.1a1.246,1.246,0,0,0,1.04-.5,2.212,2.212,0,0,0,.4-1.344l.144-6.624L2-8.672a2.768,2.768,0,0,0-.664-.864,1.241,1.241,0,0,0-.792-.272Q.5-9.808.5-9.9T.544-10l.752.016q.224.016.576.016l.848-.016A3.448,3.448,0,0,1,3.088-10a.381.381,0,0,1,.32.144,7.01,7.01,0,0,1,.416.688L7.312-2.624,10.352-9.6a.849.849,0,0,1,.2-.312.419.419,0,0,1,.28-.088q.144,0,.328.016t.424.016l.944-.016q.224-.016.64-.016.048,0,.048.1t-.048.1a1.6,1.6,0,0,0-1.088.3,1.131,1.131,0,0,0-.3.944L12.16-1.3a2.6,2.6,0,0,0,.12.72.5.5,0,0,0,.32.3A2.415,2.415,0,0,0,13.328-.192Zm6.592-.864q.032,0,.072.064T20-.9a3.939,3.939,0,0,1-1.2.832,3.388,3.388,0,0,1-1.328.256,3.435,3.435,0,0,1-1.744-.424,2.866,2.866,0,0,1-1.12-1.136A3.17,3.17,0,0,1,14.224-2.9a3.258,3.258,0,0,1,.48-1.72,3.434,3.434,0,0,1,1.312-1.248,3.8,3.8,0,0,1,1.856-.456,2.378,2.378,0,0,1,1.52.424,1.407,1.407,0,0,1,.528,1.16q0,.464-.176.464h-.976l-2.88.032a4.326,4.326,0,0,0-.048.672,3.36,3.36,0,0,0,.648,2.176,2.171,2.171,0,0,0,1.784.8A3.312,3.312,0,0,0,19.1-.7a2.722,2.722,0,0,0,.784-.336ZM17.28-6a1.093,1.093,0,0,0-.832.384,2.333,2.333,0,0,0-.512,1.056l2.272-.048Q18.16-6,17.28-6ZM28.544-.192q.048,0,.048.1t-.048.1q-.416,0-.656-.016l-.96-.016L26-.016Q25.744,0,25.328,0q-.048,0-.048-.1t.048-.1A.8.8,0,0,0,26-.424a1.531,1.531,0,0,0,.176-.872V-3.6a2.134,2.134,0,0,0-.312-1.28A1.15,1.15,0,0,0,24.88-5.3a2.163,2.163,0,0,0-.792.16,2.334,2.334,0,0,0-.712.432V-1.3a1.477,1.477,0,0,0,.184.872.829.829,0,0,0,.68.232q.048,0,.048.1T24.24,0q-.416,0-.656-.016l-.96-.016-.944.016Q21.44,0,21.024,0q-.048,0-.048-.1t.048-.1A.8.8,0,0,0,21.7-.424a1.531,1.531,0,0,0,.176-.872V-4.3a1.663,1.663,0,0,0-.12-.728.4.4,0,0,0-.376-.232,2.058,2.058,0,0,0-.768.224h-.032q-.048,0-.072-.08t.008-.1L22.736-6.3a.669.669,0,0,1,.112-.032q.176,0,.336.344a2.594,2.594,0,0,1,.192.936,3.169,3.169,0,0,1,2.432-1.312,1.761,1.761,0,0,1,1.368.552,2.064,2.064,0,0,1,.5,1.448V-1.3a1.477,1.477,0,0,0,.184.872A.829.829,0,0,0,28.544-.192ZM36.8-1.04q.048,0,.088.08t-.008.1L34.672.208a.178.178,0,0,1-.08.016q-.16,0-.28-.344a3.2,3.2,0,0,1-.136-.936A3.007,3.007,0,0,1,31.888.192,1.78,1.78,0,0,1,30.5-.36,2.064,2.064,0,0,1,30-1.808V-4.16q0-1.04-.5-1.04a.913.913,0,0,0-.4.112h-.016q-.064,0-.1-.088t.016-.1L31.152-6.3l.08-.016a.271.271,0,0,1,.168.072.193.193,0,0,1,.088.136v3.536q0,1.728,1.328,1.728A1.82,1.82,0,0,0,33.528-1a2.162,2.162,0,0,0,.648-.424V-4.16q0-1.04-.5-1.04a1.014,1.014,0,0,0-.416.112h-.016q-.048,0-.08-.088t.016-.1L35.328-6.3a.178.178,0,0,1,.08-.016.271.271,0,0,1,.168.072.193.193,0,0,1,.088.136v4.256a2,2,0,0,0,.1.768.354.354,0,0,0,.344.224,1.937,1.937,0,0,0,.656-.176Z" transform="translate(265 547)" fill="#fff"/></g></svg>