<svg xmlns="http://www.w3.org/2000/svg" width="196" height="34" viewBox="0 0 196 34"><g transform="translate(-230 -21)"><path d="M8-24.1a5.219,5.219,0,0,0,.851,2.944,9.419,9.419,0,0,0,2.093,2.254q1.242.966,3.358,2.346a44.135,44.135,0,0,1,3.68,2.576,10.2,10.2,0,0,1,2.346,2.691A6.892,6.892,0,0,1,21.3-7.636,7.3,7.3,0,0,1,20.01-3.381a8.487,8.487,0,0,1-3.565,2.9A12.145,12.145,0,0,1,11.362.552,17.486,17.486,0,0,1,7.038-.023,7.815,7.815,0,0,1,4-1.288a1.82,1.82,0,0,1-.345-.345.933.933,0,0,1-.115-.529L3.4-9.476v-.046q0-.184.23-.207t.276.161Q5.29-6.762,6.325-5.014A11.973,11.973,0,0,0,8.947-1.932,5.457,5.457,0,0,0,12.558-.6a4.605,4.605,0,0,0,3.036-.989,4.17,4.17,0,0,0,1.2-3.381,6.832,6.832,0,0,0-.9-3.542,9.649,9.649,0,0,0-2.185-2.576,41.623,41.623,0,0,0-3.542-2.53,36.931,36.931,0,0,1-3.427-2.438,9.778,9.778,0,0,1-2.093-2.438,6.3,6.3,0,0,1-.874-3.358,6.205,6.205,0,0,1,1.4-4.117,8.309,8.309,0,0,1,3.611-2.484,13.457,13.457,0,0,1,4.646-.8,18.355,18.355,0,0,1,3.266.3,13.625,13.625,0,0,1,2.668.713,1.275,1.275,0,0,1,.552.391.935.935,0,0,1,.138.529v6.762q0,.138-.23.207t-.276-.069l-.368-.874a20.679,20.679,0,0,0-2.691-4.922,5.1,5.1,0,0,0-4.3-2.024,4.327,4.327,0,0,0-3.013,1.058A3.938,3.938,0,0,0,8-24.1ZM38.594-3.22a.343.343,0,0,1,.3.184q.115.184-.023.276A13.09,13.09,0,0,1,35.558-.253a7.512,7.512,0,0,1-3.4.8A6.006,6.006,0,0,1,28.7-.414,3.655,3.655,0,0,1,27.278-3.68V-13.892a2.951,2.951,0,0,0-.506-1.978,2.442,2.442,0,0,0-1.84-.552q-.046,0-.115-.138a.612.612,0,0,1-.069-.276.817.817,0,0,1,.046-.3q.046-.115.138-.115a7.559,7.559,0,0,0,3.8-1.012,5.848,5.848,0,0,0,2.231-2.806.394.394,0,0,1,.391-.184q.3,0,.3.184v3.68q2.668-.046,5.98-.414.092,0,.207.345a2.388,2.388,0,0,1,.115.759,2.575,2.575,0,0,1-.161.9q-.161.437-.345.391a29.836,29.836,0,0,0-5.8-.69V-5.2a3.347,3.347,0,0,0,.9,2.576,3.355,3.355,0,0,0,2.369.828A5.744,5.744,0,0,0,38.5-3.174Zm19.826.736a.258.258,0,0,1,.253.207.22.22,0,0,1-.115.3L53.82.276a1.024,1.024,0,0,1-.46.092A1.915,1.915,0,0,1,52-.322a3.915,3.915,0,0,1-.943-1.886l-2.116,1.15a15.819,15.819,0,0,1-2.484.989,8.024,8.024,0,0,1-2.3.391,3.364,3.364,0,0,1-2.323-.759,2.775,2.775,0,0,1-.851-2.185,2.6,2.6,0,0,1,.529-1.7,4.024,4.024,0,0,1,1.518-1.081q.989-.437,3.151-1.173L50.876-8.1V-11.73a11.163,11.163,0,0,0-.552-4.071,1.864,1.864,0,0,0-1.794-1.311,2.1,2.1,0,0,0-1.748.828A5.1,5.1,0,0,0,46-13.57a2.5,2.5,0,0,1-2.714,2.576q-2.162,0-2.162-1.886a3.361,3.361,0,0,1,1.564-2.484,12.975,12.975,0,0,1,3.772-2.024,11.82,11.82,0,0,1,3.864-.782,4.9,4.9,0,0,1,3.519,1.288A4.958,4.958,0,0,1,55.2-13.11v8.142a3.758,3.758,0,0,0,.483,2.07,1.534,1.534,0,0,0,1.357.736,3.148,3.148,0,0,0,1.334-.322Zm-7.5-.46a7.433,7.433,0,0,1-.046-.966v-3.4l-2.53.92a4.759,4.759,0,0,0-1.771,1.012,1.858,1.858,0,0,0-.529,1.334A2.051,2.051,0,0,0,46.6-2.53a1.872,1.872,0,0,0,1.38.552,5.537,5.537,0,0,0,2.346-.644ZM72.266-18.216a3.325,3.325,0,0,1,2.047.759A2.237,2.237,0,0,1,75.3-15.64a2.194,2.194,0,0,1-.6,1.587,2.073,2.073,0,0,1-1.564.621,2.08,2.08,0,0,1-1.127-.276,3.976,3.976,0,0,1-.9-.828A4.424,4.424,0,0,0,70.4-15.2a1.221,1.221,0,0,0-.713-.207,1.836,1.836,0,0,0-.989.345,12.246,12.246,0,0,0-1.633,1.449v9.89a3,3,0,0,0,.874,2.507,5.585,5.585,0,0,0,3.22.667q.184,0,.184.276T71.162,0q-1.61,0-2.53-.046L64.906-.092l-2.714.046Q61.5,0,60.306,0q-.138,0-.138-.276t.138-.276a2.309,2.309,0,0,0,1.932-.667,4.4,4.4,0,0,0,.506-2.507v-8.648a4.782,4.782,0,0,0-.345-2.093,1.14,1.14,0,0,0-1.081-.667,5.916,5.916,0,0,0-2.208.644h-.092q-.138,0-.207-.23T58.834-15l6.394-3.128a1.922,1.922,0,0,1,.322-.092q.506,0,.943.943a7.154,7.154,0,0,1,.529,2.553,19.511,19.511,0,0,1,3.1-2.714A4.126,4.126,0,0,1,72.266-18.216ZM117.3-28.75q.138,0,.138.276t-.138.276a4.546,4.546,0,0,0-3.174,1.472,10.476,10.476,0,0,0-2.438,3.956L103.178-.046q-.046.184-.506.184t-.506-.184L90.436-24.932a9.19,9.19,0,0,0-1.656-2.461,2.584,2.584,0,0,0-1.84-.8q-.138,0-.138-.276t.138-.276a6.811,6.811,0,0,1,.966.046q.92.092,2.392.092,3.956,0,6.716-.092.736-.046,1.84-.046.138,0,.138.276t-.138.276a3.48,3.48,0,0,0-2.139.575,1.928,1.928,0,0,0-.759,1.633,4.7,4.7,0,0,0,.506,1.886L104.42-7.13l5.98-15.778a6.757,6.757,0,0,0,.46-2.208,3,3,0,0,0-.851-2.254,3.388,3.388,0,0,0-2.461-.828q-.138,0-.138-.276t.138-.276l2.254.046q1.932.092,3.45.092.874,0,2.162-.092ZM118.68,0q-.092,0-.092-.276t.092-.276a2.383,2.383,0,0,0,1.955-.667,4.246,4.246,0,0,0,.529-2.507l.046-23.368a6.305,6.305,0,0,0-.3-2.3,1.05,1.05,0,0,0-1.035-.69,4.854,4.854,0,0,0-1.748.506h-.046q-.138,0-.253-.253t-.023-.3l6.762-3.174.184-.046a.87.87,0,0,1,.506.207q.276.207.276.391V-3.726a4.4,4.4,0,0,0,.506,2.507,2.309,2.309,0,0,0,1.932.667q.184,0,.184.276T127.972,0q-1.15,0-1.84-.046l-2.806-.046-2.76.046Q119.876,0,118.68,0Zm29.992-2.484a.258.258,0,0,1,.253.207.22.22,0,0,1-.115.3L144.072.276a1.024,1.024,0,0,1-.46.092,1.915,1.915,0,0,1-1.357-.69,3.916,3.916,0,0,1-.943-1.886L139.2-1.058a15.819,15.819,0,0,1-2.484.989,8.024,8.024,0,0,1-2.3.391,3.364,3.364,0,0,1-2.323-.759,2.775,2.775,0,0,1-.851-2.185,2.6,2.6,0,0,1,.529-1.7,4.024,4.024,0,0,1,1.518-1.081q.989-.437,3.151-1.173L141.128-8.1V-11.73a11.163,11.163,0,0,0-.552-4.071,1.864,1.864,0,0,0-1.794-1.311,2.1,2.1,0,0,0-1.748.828,5.1,5.1,0,0,0-.782,2.714,2.5,2.5,0,0,1-2.714,2.576q-2.162,0-2.162-1.886a3.361,3.361,0,0,1,1.564-2.484,12.975,12.975,0,0,1,3.772-2.024,11.82,11.82,0,0,1,3.864-.782,4.9,4.9,0,0,1,3.519,1.288,4.958,4.958,0,0,1,1.357,3.772v8.142a3.758,3.758,0,0,0,.483,2.07,1.534,1.534,0,0,0,1.357.736,3.148,3.148,0,0,0,1.334-.322Zm-7.5-.46a7.432,7.432,0,0,1-.046-.966v-3.4l-2.53.92a4.759,4.759,0,0,0-1.771,1.012,1.858,1.858,0,0,0-.529,1.334,2.051,2.051,0,0,0,.552,1.518,1.872,1.872,0,0,0,1.38.552,5.537,5.537,0,0,0,2.346-.644Zm13.018-12.6a3.179,3.179,0,0,0,.943,2.3,13.308,13.308,0,0,0,2.737,2.024q1.748,1.012,2.6,1.587a5.758,5.758,0,0,1,1.541,1.61,4.416,4.416,0,0,1,.69,2.507,5.878,5.878,0,0,1-.782,2.944,5.793,5.793,0,0,1-2.346,2.231,7.687,7.687,0,0,1-3.726.851,9.765,9.765,0,0,1-4.784-1.242.8.8,0,0,1-.276-.552L150.7-5.842q0-.138.253-.161t.3.069a9.108,9.108,0,0,0,2.438,3.91,5.055,5.055,0,0,0,3.45,1.61,2.038,2.038,0,0,0,1.541-.6,2.426,2.426,0,0,0,.575-1.748,3.686,3.686,0,0,0-.966-2.691A12.727,12.727,0,0,0,155.434-7.5q-1.61-.874-2.438-1.426a5.178,5.178,0,0,1-1.472-1.564,4.536,4.536,0,0,1-.644-2.484,4.413,4.413,0,0,1,1.932-3.979,8.465,8.465,0,0,1,4.738-1.265,11.994,11.994,0,0,1,1.909.138,9.49,9.49,0,0,1,1.909.552.515.515,0,0,1,.414.506q0,1.15-.046,1.794l-.046,2.3q0,.138-.276.138t-.276-.138a3.374,3.374,0,0,0-.736-1.909,6.627,6.627,0,0,0-1.909-1.771,4.488,4.488,0,0,0-2.415-.736Q154.192-17.342,154.192-15.548ZM179.17-3.22a.343.343,0,0,1,.3.184q.115.184-.023.276a13.09,13.09,0,0,1-3.312,2.507,7.512,7.512,0,0,1-3.4.8,6.006,6.006,0,0,1-3.45-.966,3.655,3.655,0,0,1-1.426-3.266V-13.892a2.951,2.951,0,0,0-.506-1.978,2.442,2.442,0,0,0-1.84-.552q-.046,0-.115-.138a.612.612,0,0,1-.069-.276.816.816,0,0,1,.046-.3q.046-.115.138-.115a7.559,7.559,0,0,0,3.795-1.012,5.848,5.848,0,0,0,2.231-2.806.394.394,0,0,1,.391-.184q.3,0,.3.184v3.68q2.668-.046,5.98-.414.092,0,.207.345a2.389,2.389,0,0,1,.115.759,2.575,2.575,0,0,1-.161.9q-.161.437-.345.391a29.836,29.836,0,0,0-5.8-.69V-5.2a3.347,3.347,0,0,0,.9,2.576,3.355,3.355,0,0,0,2.369.828,5.744,5.744,0,0,0,3.588-1.38ZM199-2.484a.258.258,0,0,1,.253.207.22.22,0,0,1-.115.3L194.4.276a1.024,1.024,0,0,1-.46.092,1.915,1.915,0,0,1-1.357-.69,3.916,3.916,0,0,1-.943-1.886l-2.116,1.15a15.819,15.819,0,0,1-2.484.989,8.024,8.024,0,0,1-2.3.391,3.364,3.364,0,0,1-2.323-.759,2.775,2.775,0,0,1-.851-2.185,2.6,2.6,0,0,1,.529-1.7,4.024,4.024,0,0,1,1.518-1.081q.989-.437,3.151-1.173L191.452-8.1V-11.73A11.163,11.163,0,0,0,190.9-15.8a1.864,1.864,0,0,0-1.794-1.311,2.1,2.1,0,0,0-1.748.828,5.1,5.1,0,0,0-.782,2.714,2.5,2.5,0,0,1-2.714,2.576q-2.162,0-2.162-1.886a3.361,3.361,0,0,1,1.564-2.484,12.975,12.975,0,0,1,3.772-2.024,11.82,11.82,0,0,1,3.864-.782,4.9,4.9,0,0,1,3.519,1.288,4.958,4.958,0,0,1,1.357,3.772v8.142a3.758,3.758,0,0,0,.483,2.07,1.534,1.534,0,0,0,1.357.736,3.148,3.148,0,0,0,1.334-.322Zm-7.5-.46a7.432,7.432,0,0,1-.046-.966v-3.4l-2.53.92a4.759,4.759,0,0,0-1.771,1.012,1.858,1.858,0,0,0-.529,1.334,2.051,2.051,0,0,0,.552,1.518,1.872,1.872,0,0,0,1.38.552,5.537,5.537,0,0,0,2.346-.644Z" transform="translate(226.596 54.35)" fill="#fff"/><rect width="196" height="34" transform="translate(230 21)" fill="none"/></g></svg>