<svg xmlns="http://www.w3.org/2000/svg" width="166" height="166" viewBox="0 0 166 166"><g transform="translate(-194 -279)"><g transform="translate(194 281)" fill="rgba(255,255,255,0.8)"><path d="M 150.4440002441406 135.3616943359375 L 15.55600643157959 135.3616943359375 L 83 18.05652046203613 L 150.4440002441406 135.3616943359375 Z" stroke="none"/><path d="M 83 36.11305236816406 L 31.11201477050781 126.3616943359375 L 134.8879852294922 126.3616943359375 L 83 36.11305236816406 M 83 0 L 166 144.3616943359375 L 0 144.3616943359375 L 83 0 Z" stroke="none" fill="#fff"/></g><path d="M7.1-19.264q-3.808,0-5.472,4.96-.032.1-.192.08t-.16-.112q.128-1.28.288-3.312t.16-3.056q0-.16.176-.16t.176.16q0,.7,1.824.7,2.752.1,6.432.1,1.888,0,4-.064L16.512-20a7.081,7.081,0,0,0,1.776-.16.98.98,0,0,0,.72-.64q.032-.128.208-.128t.176.128q-.1.96-.208,3.072t-.112,3.392q0,.1-.16.1t-.192-.1a6.668,6.668,0,0,0-1.792-3.7A4.543,4.543,0,0,0,13.7-19.264a1.492,1.492,0,0,0-1.232.4,2.676,2.676,0,0,0-.3,1.52V-2.592a3.933,3.933,0,0,0,.192,1.44,1.075,1.075,0,0,0,.736.608,6.7,6.7,0,0,0,1.728.16q.1,0,.1.192t-.1.192q-1.152,0-1.824-.032L10.336-.064,7.744-.032Q7.072,0,5.888,0q-.1,0-.1-.192t.1-.192A6.731,6.731,0,0,0,7.6-.544a1.125,1.125,0,0,0,.768-.624,3.672,3.672,0,0,0,.208-1.424V-17.408a2.628,2.628,0,0,0-.288-1.472A1.427,1.427,0,0,0,7.1-19.264ZM31.712.384a10.092,10.092,0,0,1-5.3-1.392,9.535,9.535,0,0,1-3.584-3.776,10.929,10.929,0,0,1-1.264-5.2,9.526,9.526,0,0,1,1.664-5.648A10.427,10.427,0,0,1,27.5-19.168a12.767,12.767,0,0,1,5.328-1.184,9.955,9.955,0,0,1,5.344,1.424,9.651,9.651,0,0,1,3.536,3.76,10.481,10.481,0,0,1,1.232,4.96,9.81,9.81,0,0,1-1.536,5.344A11.036,11.036,0,0,1,37.3-1.024,11.457,11.457,0,0,1,31.712.384Zm1.056-.8a5.318,5.318,0,0,0,3.216-1.04A6.742,6.742,0,0,0,38.208-4.5a12.869,12.869,0,0,0,.8-4.784,14.526,14.526,0,0,0-.9-5.264,8.192,8.192,0,0,0-2.592-3.632,6.3,6.3,0,0,0-3.968-1.312,5.177,5.177,0,0,0-4.48,2.192A10.393,10.393,0,0,0,25.5-11.168a15.341,15.341,0,0,0,.944,5.552A9.134,9.134,0,0,0,29.04-1.792,5.661,5.661,0,0,0,32.768-.416Zm18.656-2.3a3.643,3.643,0,0,0,.224,1.488,1.3,1.3,0,0,0,.848.656,7.457,7.457,0,0,0,2,.192q.1,0,.1.192T54.5,0q-1.312,0-2.048-.032L49.664-.064l-2.336.032Q46.688,0,45.6,0q-.1,0-.1-.192t.1-.192a4.978,4.978,0,0,0,1.488-.16.959.959,0,0,0,.624-.624,4.686,4.686,0,0,0,.16-1.424V-17.408a4.521,4.521,0,0,0-.16-1.408,1.007,1.007,0,0,0-.64-.624,4.57,4.57,0,0,0-1.472-.176q-.1,0-.1-.192T45.6-20l1.7.032q1.472.064,2.336.064.768,0,1.824-.1.416-.032,1.056-.064t1.472-.032a8.66,8.66,0,0,1,5.152,1.36,4.837,4.837,0,0,1,1.888,4.208A5.469,5.469,0,0,1,60-11.168a6.428,6.428,0,0,1-2.64,2.08,8.216,8.216,0,0,1-3.312.7,6.251,6.251,0,0,1-1.5-.16q-.064,0-.064-.16a.426.426,0,0,1,.048-.192q.048-.1.112-.064a4.23,4.23,0,0,0,1.088.128,2.909,2.909,0,0,0,2.448-1.376,6.681,6.681,0,0,0,.976-3.9,6.228,6.228,0,0,0-1.072-3.9,3.716,3.716,0,0,0-3.12-1.376,1.464,1.464,0,0,0-1.216.416,2.88,2.88,0,0,0-.32,1.632Z" transform="translate(246 372)"/><rect width="166" height="166" transform="translate(194 279)" fill="none"/></g></svg>