<svg xmlns="http://www.w3.org/2000/svg" width="166" height="166" viewBox="0 0 166 166"><g transform="translate(-920 -279)"><g transform="translate(181 119)"><line x2="96.5" y2="96.5" transform="translate(774 194)" fill="none" stroke="#fff" stroke-width="18"/><line y1="96.5" x2="96.5" transform="translate(774 194)" fill="none" stroke="#fff" stroke-width="18"/><line y1="96.5" x2="96.5" transform="translate(774 194)" fill="none" stroke="rgba(255,255,255,0.8)" stroke-width="80"/><line x2="96.5" y2="96.5" transform="translate(774 194)" fill="none" stroke="rgba(255,255,255,0.8)" stroke-width="80"/></g><path d="M29.344-20q.064,0,.064.192t-.064.192a3.162,3.162,0,0,0-2.224,1.008,7.529,7.529,0,0,0-1.712,2.768L19.488-.032Q19.456.1,19.136.1t-.352-.128L14.688-8.7,11.456-.032Q11.424.1,11.1.1t-.352-.128L2.592-17.344a11.685,11.685,0,0,0-.784-1.472,1.752,1.752,0,0,0-.672-.624,2.282,2.282,0,0,0-.976-.176q-.1,0-.1-.192T.16-20a4.738,4.738,0,0,1,.672.032q.64.064,1.664.064,2.144,0,3.616-.064Q6.528-20,7.136-20q.1,0,.1.192t-.1.192A2.872,2.872,0,0,0,6-19.456a.582.582,0,0,0-.336.576A6.527,6.527,0,0,0,6.4-16.768L12.16-4.544l2.016-5.28-3.552-7.52A7.878,7.878,0,0,0,9.6-19.056a1.36,1.36,0,0,0-1.024-.56q-.1,0-.1-.192t.1-.192a6.929,6.929,0,0,1,.752.048,11.942,11.942,0,0,0,1.232.048q1.824,0,3.04-.064.32-.032.832-.032.1,0,.1.192t-.1.192a1.449,1.449,0,0,0-.656.112.414.414,0,0,0-.208.4,7.558,7.558,0,0,0,.864,2.336l1.408,2.976.8-2.144a8.537,8.537,0,0,0,.7-2.752q0-.928-.8-.928-.1,0-.1-.192t.1-.192a3.61,3.61,0,0,1,.56.048,13.727,13.727,0,0,0,1.52.048q.544,0,1.312-.064L21.12-20q.064,0,.064.192t-.064.192q-2.144,0-3.552,3.776l-1.184,3.168,3.84,8.1,4.128-11.04a5.344,5.344,0,0,0,.384-1.856,2.323,2.323,0,0,0-.5-1.568,1.664,1.664,0,0,0-1.328-.576q-.1,0-.1-.192t.1-.192l1.472.032q1.152.064,2.112.064.64,0,1.472-.064ZM39.936.384a10.092,10.092,0,0,1-5.3-1.392,9.535,9.535,0,0,1-3.584-3.776,10.929,10.929,0,0,1-1.264-5.2,9.526,9.526,0,0,1,1.664-5.648,10.427,10.427,0,0,1,4.272-3.536,12.767,12.767,0,0,1,5.328-1.184A9.955,9.955,0,0,1,46.4-18.928a9.651,9.651,0,0,1,3.536,3.76,10.481,10.481,0,0,1,1.232,4.96,9.81,9.81,0,0,1-1.536,5.344,11.036,11.036,0,0,1-4.112,3.84A11.457,11.457,0,0,1,39.936.384Zm1.056-.8a5.318,5.318,0,0,0,3.216-1.04A6.742,6.742,0,0,0,46.432-4.5a12.869,12.869,0,0,0,.8-4.784,14.526,14.526,0,0,0-.9-5.264,8.192,8.192,0,0,0-2.592-3.632,6.3,6.3,0,0,0-3.968-1.312A5.177,5.177,0,0,0,35.3-17.3a10.393,10.393,0,0,0-1.568,6.128,15.341,15.341,0,0,0,.944,5.552,9.134,9.134,0,0,0,2.592,3.824A5.661,5.661,0,0,0,40.992-.416Zm34.4.032q.064,0,.064.192T75.392,0H69.7q-.7,0-2.624-2.64a85.183,85.183,0,0,1-4.64-7.376,6.365,6.365,0,0,1-.736.032q-1.248,0-1.76-.032v7.424a4.664,4.664,0,0,0,.16,1.44.959.959,0,0,0,.624.608,4.978,4.978,0,0,0,1.488.16q.064,0,.064.192T62.208,0q-1.056,0-1.664-.032L58.112-.064l-2.336.032Q55.136,0,54.048,0q-.1,0-.1-.192t.1-.192a4.978,4.978,0,0,0,1.488-.16,1.006,1.006,0,0,0,.64-.624,4.284,4.284,0,0,0,.176-1.424V-17.408a4.521,4.521,0,0,0-.16-1.408,1.007,1.007,0,0,0-.64-.624,4.57,4.57,0,0,0-1.472-.176q-.064,0-.064-.192T54.08-20l1.7.032q1.472.064,2.336.064.928,0,2.048-.1.352-.032.912-.064T62.4-20.1a8.213,8.213,0,0,1,4.56,1.072,3.4,3.4,0,0,1,1.616,2.992,5,5,0,0,1-.9,2.816,6.929,6.929,0,0,1-2.336,2.176q2.56,4.032,4.3,6.3a18.094,18.094,0,0,0,3.1,3.312A4.381,4.381,0,0,0,75.392-.384ZM59.936-10.944a11.5,11.5,0,0,0,1.856.128,3.961,3.961,0,0,0,1.824-.352,2.072,2.072,0,0,0,.976-1.216,7.632,7.632,0,0,0,.3-2.432,6.177,6.177,0,0,0-.768-3.616,2.626,2.626,0,0,0-2.208-.992,2.037,2.037,0,0,0-1.536.48,2.313,2.313,0,0,0-.448,1.6ZM96.32-.384q.1,0,.1.192T96.32,0H92.736q-.512,0-.864.032T91.3.064a1.575,1.575,0,0,1-.88-.24,4.462,4.462,0,0,1-.9-.88q-.528-.64-1.872-2.464-.16-.224-.368-.5t-.464-.624l-4.192-5.632-.7.7v6.976a4.664,4.664,0,0,0,.16,1.44.959.959,0,0,0,.624.608,4.978,4.978,0,0,0,1.488.16q.128,0,.128.192T84.192,0q-1.056,0-1.664-.032l-2.4-.032L77.76-.032Q77.12,0,76.032,0q-.064,0-.064-.192t.064-.192a5.15,5.15,0,0,0,1.5-.16,1.007,1.007,0,0,0,.656-.624,4.284,4.284,0,0,0,.176-1.424V-17.408a4.135,4.135,0,0,0-.176-1.408,1.059,1.059,0,0,0-.64-.624,4.416,4.416,0,0,0-1.456-.176q-.1,0-.1-.192T76.1-20l1.7.032q1.472.064,2.336.064.96,0,2.432-.064L84.192-20q.1,0,.1.192t-.1.192a4.072,4.072,0,0,0-1.456.192,1.11,1.11,0,0,0-.64.656,4.284,4.284,0,0,0-.176,1.424v6.784L87.936-16.7a2.573,2.573,0,0,0,.928-1.7,1,1,0,0,0-.512-.9,2.719,2.719,0,0,0-1.44-.32q-.1,0-.1-.192t.1-.192l1.5.032q1.408.064,2.624.064,1.312,0,2.72-.064L95.2-20q.1,0,.1.192t-.1.192a7.525,7.525,0,0,0-3.232.848,12.017,12.017,0,0,0-3.2,2.256l-3.616,3.68,4.736,6.4q2.08,2.976,3.12,4.208a6.044,6.044,0,0,0,1.68,1.536A3.81,3.81,0,0,0,96.32-.384Zm5.28-16.384a3.63,3.63,0,0,0,.592,2.048,6.552,6.552,0,0,0,1.456,1.568q.864.672,2.336,1.632a30.7,30.7,0,0,1,2.56,1.792,7.1,7.1,0,0,1,1.632,1.872,4.8,4.8,0,0,1,.672,2.544,5.079,5.079,0,0,1-.9,2.96,5.9,5.9,0,0,1-2.48,2.016,8.449,8.449,0,0,1-3.536.72,12.164,12.164,0,0,1-3.008-.4A5.436,5.436,0,0,1,98.816-.9a1.266,1.266,0,0,1-.24-.24A.649.649,0,0,1,98.5-1.5l-.1-5.088v-.032q0-.128.16-.144t.192.112q.96,1.952,1.68,3.168a8.329,8.329,0,0,0,1.824,2.144,3.8,3.8,0,0,0,2.512.928A3.2,3.2,0,0,0,106.88-1.1a2.9,2.9,0,0,0,.832-2.352,4.753,4.753,0,0,0-.624-2.464,6.712,6.712,0,0,0-1.52-1.792,28.955,28.955,0,0,0-2.464-1.76,25.692,25.692,0,0,1-2.384-1.7,6.8,6.8,0,0,1-1.456-1.7,4.381,4.381,0,0,1-.608-2.336,4.317,4.317,0,0,1,.976-2.864,5.78,5.78,0,0,1,2.512-1.728,9.361,9.361,0,0,1,3.232-.56,12.768,12.768,0,0,1,2.272.208,9.479,9.479,0,0,1,1.856.5.887.887,0,0,1,.384.272.651.651,0,0,1,.1.368v4.7q0,.1-.16.144t-.192-.048l-.256-.608A14.386,14.386,0,0,0,107.5-18.24a3.546,3.546,0,0,0-2.992-1.408,3.01,3.01,0,0,0-2.1.736A2.739,2.739,0,0,0,101.6-16.768Z" transform="translate(947 372)"/><rect width="166" height="166" transform="translate(920 279)" fill="none"/></g></svg>